<svg xmlns="http://www.w3.org/2000/svg" version="1.1" xmlns:xlink="http://www.w3.org/1999/xlink" xmlns:svgjs="http://svgjs.dev/svgjs" width="1500" height="939" viewBox="0 0 1500 939"><g transform="matrix(1,0,0,1,-0.9090909090909918,-1.5145161290323017)"><svg viewBox="0 0 396 248" data-background-color="#f9f6ed" preserveAspectRatio="xMidYMid meet" height="939" width="1500" xmlns="http://www.w3.org/2000/svg" xmlns:xlink="http://www.w3.org/1999/xlink"><g id="tight-bounds" transform="matrix(1,0,0,1,0.2400000000000091,0.4000000000000057)"><svg viewBox="0 0 395.52 247.2" height="247.2" width="395.52"><g><svg></svg></g><g><svg viewBox="0 0 395.52 247.2" height="247.2" width="395.52"><g transform="matrix(1,0,0,1,129.4849205164993,47.215199999999996)"><svg viewBox="0 0 136.5501589670014 152.7696" height="152.7696" width="136.5501589670014"><g><svg viewBox="0 0 136.5501589670014 152.7696" height="152.7696" width="136.5501589670014"><g><svg viewBox="0 0 136.5501589670014 152.7696" height="152.7696" width="136.5501589670014"><g><svg viewBox="0 0 136.5501589670014 152.7696" height="152.7696" width="136.5501589670014"><g id="textblocktransform"><svg viewBox="0 0 136.5501589670014 152.7696" height="152.7696" width="136.5501589670014" id="textblock"><g><svg viewBox="0 0 136.5501589670014 152.7696" height="152.7696" width="136.5501589670014"><g transform="matrix(1,0,0,1,0,0)"><svg width="136.5501589670014" viewBox="-2.5 -41.4 62.3 69.7" height="152.7696" data-palette-color="#21272d"><path d="M28.2-7.55L28.2-7.55Q30.3-9.65 33.75-13.6L33.75-13.6Q33.9-13.75 34-13.75 34.1-13.75 34.1-13.55L34.1-13.55Q34.1-12.6 33.35-11.7L33.35-11.7Q29.65-7.6 26.8-4.85L26.8-4.85Q20.9 0.65 19.05 0.65L19.05 0.65Q18.25 0.65 18.25-0.3 18.25-1.25 19.28-3.45 20.3-5.65 21.33-7.45 22.35-9.25 23.93-11.85 25.5-14.45 25.6-14.65L25.6-14.65Q26.5-16.1 26.5-16.5L26.5-16.5Q26.5-16.75 26.25-16.75L26.25-16.75 25.55-16.5Q23.25-14.85 20.05-11.38 16.85-7.9 14.8-5.3L14.8-5.3 12.75-2.65Q10.45 0.65 8.25 0.65L8.25 0.65Q7.6 0.65 7.6 0.25L7.6 0.25Q7.6-0.2 8.55-2.13 9.5-4.05 10.45-5.75L10.45-5.75 11.4-7.45Q11.75-8.15 13.13-10.48 14.5-12.8 15.43-14.48 16.35-16.15 16.35-16.55L16.35-16.55Q16.35-16.8 16.15-16.8L16.15-16.8 15.45-16.5Q13.1-14.85 9.9-11.38 6.7-7.9 4.7-5.3L4.7-5.3 2.65-2.65Q0.3 0.6-1.85 0.6L-1.85 0.6Q-2.5 0.6-2.5 0.25L-2.5 0.25Q-2.5-0.2-1.55-2.13-0.6-4.05 0.35-5.75L0.35-5.75 1.3-7.45 6.15-16.05Q7.35-18.3 9.05-20.08 10.75-21.85 12.6-21.85L12.6-21.85Q13-21.85 13-21.5L13-21.5Q13-21.2 12.43-20.23 11.85-19.25 10.78-17.53 9.7-15.8 8.95-14.35L8.95-14.35Q8.5-13.5 7.88-12.43 7.25-11.35 6.85-10.63 6.45-9.9 6.3-9.6 6.15-9.3 6.15-9.15L6.15-9.15Q6.15-9.05 6.25-9.05L6.25-9.05Q6.4-9.05 6.75-9.4L6.75-9.4Q7.7-10.5 9.22-12.15 10.75-13.8 14.4-17.13 18.05-20.45 20.4-21.6L20.4-21.6Q20.9-21.85 21.4-21.85L21.4-21.85Q22.1-21.85 22.1-21.15L22.1-21.15Q22.1-19.85 19.15-14.4L19.15-14.4Q18.9-13.95 18.13-12.65 17.35-11.35 16.82-10.4 16.3-9.45 16.3-9.2L16.3-9.2Q16.3-9.05 16.4-9.05L16.4-9.05Q16.55-9.05 16.9-9.4L16.9-9.4Q17.85-10.5 19.38-12.15 20.9-13.8 24.53-17.13 28.15-20.45 30.5-21.6L30.5-21.6Q31.1-21.85 31.55-21.85L31.55-21.85Q32.3-21.85 32.3-21.15L32.3-21.15Q32.3-20.95 32.1-20.28 31.9-19.6 30.95-17.53 30-15.45 28.45-12.95L28.45-12.95Q24.65-7.1 24.65-5.6L24.65-5.6Q24.65-5.15 24.95-5.15L24.95-5.15Q25.8-5.15 28.2-7.55ZM37.4-20.2L36.2-20.5Q35.9-20.65 35.9-20.85L35.9-20.85Q35.9-21.15 36.45-21.15L36.45-21.15 37.95-21.15Q43.15-29.55 46.45-33.45L46.45-33.45Q49.9-37.45 53.3-39.43 56.7-41.4 58.55-41.4L58.55-41.4Q59.75-41.4 59.75-40.35L59.75-40.35Q59.75-38.05 57.37-35.68 55-33.3 53.35-32.6L53.35-32.6Q53.05-32.5 52.95-32.5L52.95-32.5Q52.75-32.5 52.75-32.75L52.75-32.75Q52.75-32.9 52.9-33.15L52.9-33.15Q55.8-37.4 55.8-38.8L55.8-38.8Q55.8-39.15 55.5-39.15L55.5-39.15Q54.9-39.15 53.5-38.05L53.5-38.05Q50.1-35.5 41.6-21.15L41.6-21.15 45.45-21.15Q46.15-21.15 46.15-20.95L46.15-20.95Q46.15-20.7 45.77-20.4 45.4-20.1 45.2-20.1L45.2-20.1 41.65-20.1Q40.95-20.1 40.95-19.75L40.95-19.75Q40.95-19.6 41.02-18.9 41.1-18.2 41.1-17.8L41.1-17.8Q41.1-13.15 38.27-6.63 35.45-0.1 30.95 5.9L30.95 5.9Q28.35 9.35 26.15 11.6 23.95 13.85 22.82 14.58 21.7 15.3 21.15 15.3L21.15 15.3Q20.45 15.3 20.45 14.35L20.45 14.35Q20.45 9.75 30-7.1L30-7.1Q30-7.15 30.95-8.9 31.9-10.65 33.72-13.93 35.55-17.2 37.4-20.2L37.4-20.2ZM39.75-16.4L39.75-16.4Q39.75-17.1 39.6-17.7L39.6-17.7Q31.7-4.1 28.6 2.45L28.6 2.45Q25.75 8.35 25.75 9.35L25.75 9.35Q25.75 9.55 25.9 9.55L25.9 9.55Q26.6 9.55 29.35 6.3L29.35 6.3Q32.25 2.9 36-4.45 39.75-11.8 39.75-16.4ZM44.65-5.4L42.6-1.8Q42.35-1.35 42.35-0.9L42.35-0.9Q42.35 0 43.75 0L43.75 0Q45.2 0 46.8-1.33 48.4-2.65 49.67-4.53 50.95-6.4 52.02-8.28 53.1-10.15 53.65-11.5L53.65-11.5 54.25-12.8Q55.55-16.05 55.55-17.55L55.55-17.55Q55.55-18.6 54.8-18.6L54.8-18.6Q54.35-18.6 53.9-18.3L53.9-18.3Q52.3-17.3 49.47-13.18 46.65-9.05 44.65-5.4L44.65-5.4ZM53.25-24.9L53.25-24.9Q53.6-24.9 53.6-24.5L53.6-24.5Q53.6-23.8 52.77-21.8 51.95-19.8 51.15-18.2L51.15-18.2 50.3-16.55Q50.25-16.45 50.25-16.35L50.25-16.35Q50.25-16.2 50.35-16.2 50.45-16.2 50.65-16.4L50.65-16.4Q50.8-16.65 51.1-17 51.4-17.35 52.3-18.32 53.2-19.3 54.02-20.03 54.85-20.75 55.92-21.35 57-21.95 57.85-21.95L57.85-21.95Q59.8-21.95 59.8-18.75L59.8-18.75Q59.8-16.15 58.25-12.35L58.25-12.35Q58.25-12.25 57.67-10.95 57.1-9.65 55.85-7.6 54.6-5.55 53-3.63 51.4-1.7 49.02-0.3 46.65 1.1 44.15 1.1L44.15 1.1Q43.45 1.1 42.85 0.93 42.25 0.75 41.95 0.58 41.65 0.4 41.55 0.4L41.55 0.4 41.2 0.6Q39.85 2.6 36.9 8 33.95 13.4 32.2 17.05L32.2 17.05Q31.95 17.5 31.55 18.25 31.15 19 30 20.95 28.85 22.9 27.82 24.38 26.8 25.85 25.57 27.08 24.35 28.3 23.5 28.3L23.5 28.3Q23 28.3 23 27.85L23 27.85Q23 26.5 25.92 20.93 28.85 15.35 31.8 10.4L31.8 10.4 34.75 5.5Q42-7.15 46.05-14.6L46.05-14.6Q46.15-14.8 46.35-15.18 46.55-15.55 47.15-16.63 47.75-17.7 48.3-18.68 48.85-19.65 49.6-20.83 50.35-22 51-22.88 51.65-23.75 52.25-24.33 52.85-24.9 53.25-24.9Z" opacity="1" transform="matrix(1,0,0,1,0,0)" fill="#21272d" class="wordmark-text-0" data-fill-palette-color="primary" id="text-0"></path></svg></g></svg></g></svg></g></svg></g></svg></g></svg></g></svg></g><g><path d="M0 123.6c0-68.262 55.338-123.6 123.6-123.6 30.402 0 58.24 10.976 79.768 29.183l-11.147 0c-19.26-14.022-42.974-22.294-68.621-22.295-64.458 0-116.712 52.254-116.712 116.712 0 64.458 52.254 116.712 116.712 116.712 25.647 0 49.361-8.272 68.621-22.295l11.147 0c-21.528 18.206-49.366 29.183-79.768 29.183-68.262 0-123.6-55.338-123.6-123.6z" fill="#21272d" stroke="transparent" data-fill-palette-color="tertiary"></path></g></svg></g><defs></defs></svg><rect width="395.52" height="247.2" fill="none" stroke="none" visibility="hidden"></rect></g></svg></g></svg>